<?xml version="1.0" standalone="no"?>
<!DOCTYPE svg PUBLIC "-//W3C//DTD SVG 20010904//EN"
 "http://www.w3.org/TR/2001/REC-SVG-20010904/DTD/svg10.dtd">
<svg version="1.0" xmlns="http://www.w3.org/2000/svg"
 width="260.000000pt" height="260.000000pt" viewBox="0 0 260.000000 260.000000"
 preserveAspectRatio="xMidYMid meet">
<metadata>
Created by potrace 1.11, written by Peter Selinger 2001-2013
</metadata>
<g transform="translate(0.000000,260.000000) scale(0.100000,-0.100000)"
fill="#000000" stroke="none">
<path d="M1089 2362 c-134 -117 -214 -224 -254 -338 -54 -151 -13 -270 106
-305 28 -9 57 -9 113 0 54 8 83 8 103 0 26 -10 146 -4 166 8 5 3 -14 13 -43
23 -29 10 -66 32 -83 49 -31 30 -31 33 -30 120 l1 89 56 93 c31 52 76 122 101
157 40 56 82 158 70 170 -7 7 -155 -124 -204 -181 -135 -159 -190 -318 -146
-425 9 -20 26 -47 37 -59 15 -17 17 -23 7 -23 -26 1 -94 37 -119 64 -22 25
-24 35 -24 116 1 86 2 90 44 162 24 40 65 103 91 139 49 66 81 129 93 182 4
15 3 27 -1 27 -5 -1 -42 -31 -84 -68z"/>
<path d="M1539 2362 c-223 -195 -324 -408 -260 -547 37 -80 101 -112 204 -100
34 4 66 10 70 12 5 3 -14 13 -43 23 -29 10 -66 32 -83 49 -31 30 -31 33 -30
120 1 85 2 91 43 162 24 41 65 104 91 140 49 66 81 129 93 182 4 15 3 27 -1
27 -5 -1 -42 -31 -84 -68z"/>
<path d="M726 1605 c-9 -9 -19 -27 -22 -39 -3 -13 -4 -173 -2 -357 l3 -334 27
-51 c30 -58 73 -98 133 -125 36 -17 71 -19 350 -18 333 0 353 2 420 53 43 33
85 104 92 155 l5 38 79 7 c109 9 178 37 239 96 76 74 100 134 100 250 0 74 -5
105 -21 139 -31 70 -82 124 -151 162 l-63 34 -586 3 c-527 2 -589 1 -603 -13z
m1147 -169 c73 -26 109 -79 109 -158 0 -100 -84 -172 -195 -166 l-52 3 -3 155
c-1 85 0 160 2 167 7 17 89 16 139 -1z"/>
<path d="M462 588 c-32 -32 3 -120 59 -150 32 -17 75 -18 737 -18 774 0 753
-2 792 62 24 40 27 103 4 112 -9 3 -368 6 -798 6 -595 0 -785 -3 -794 -12z"/>
</g>
</svg>
